# AST/ASF file generated using VICON BodyLanguage
# -----------------------------------------------
:version 1.10
:name VICON
:units
  mass 1.0
  length 0.45
  angle deg
:documentation
   .ast/.asf automatically generated from VICON data using
   VICON BodyBuilder and BodyLanguage model FoxedUp or BRILLIANT.MOD
:root
   order TX TY TZ RX RY RZ
   axis XYZ
   position 0 0 0  
   orientation 0 0 0 
:bonedata
  begin
     id 1 
     name lhipjoint
     direction 0.623529 -0.717805 0.309788 
     length 2.23224 
     axis 0 0 0  XYZ
  end
  begin
     id 2 
     name lfemur
     direction 0.34202 -0.939693 0  
     length 7.11402  
     axis 0 0 20  XYZ
    dof rx ry rz
    limits (-160.0 20.0)
           (-70.0 70.0)
           (-60.0 70.0)
  end
  begin
     id 3 
     name ltibia
     direction 0.34202 -0.939693 0   
     length 6.78496   
     axis 0 0 20   XYZ
    dof rx
    limits (-10.0 170.0)
  end
  begin
     id 4 
     name lfoot
     direction 0.125078 -0.343648 0.930732   
     length 1.84054   
     axis -90 7.62852e-016 20   XYZ
    dof rx rz
    limits (-45.0 90.0)
           (-70.0 20.0)
  end
  begin
     id 5 
     name ltoes
     direction 1.53565e-011 -4.21893e-011 1   
     length 0.916474   
     axis -90 7.62852e-016 20   XYZ
    dof rx
    limits (-90.0 20.0)
  end
  begin
     id 6 
     name rhipjoint
     direction -0.564688 -0.757748 0.327026   
     length 2.11457  
     axis 0 0 0  XYZ 
  end
  begin
     id 7 
     name rfemur
     direction -0.34202 -0.939693 0   
     length 7.14609   
     axis 0 0 -20   XYZ
    dof rx ry rz
    limits (-160.0 20.0)
           (-70.0 70.0)
           (-70.0 60.0)
  end
  begin
     id 8 
     name rtibia
     direction -0.34202 -0.939693 0   
     length 6.78101   
     axis 0 0 -20   XYZ
    dof rx
    limits (-10.0 170.0)
 end
 begin
     id 9 
     name rfoot
     direction -0.0992671 -0.272734 0.956955   
     length 1.96168  
     axis -90 -7.62852e-016 -20   XYZ
    dof rx rz
    limits (-45.0 90.0)
           (-20.0 70.0)
  end
  begin
     id 10 
     name rtoes
     direction -1.5356e-011 -4.21891e-011 1   
     length 0.982933   
     axis -90 -7.62852e-016 -20   XYZ
    dof rx
    limits (-90.0 20.0)
  end
  begin
     id 11 
     name lowerback
     direction -0.00596953 0.998668 0.0512524   
     length 1.87557   
     axis 0 0 0   XYZ
    dof rx ry rz
    limits (-20.0 45.0)
           (-30.0 30.0)
           (-30.0 30.0)
  end
  begin
     id 12 
     name upperback
     direction 0.00584879 0.999652 0.0257308   
     length 1.87883   
     axis 0 0 0   XYZ
    dof rx ry rz
    limits (-20.0 45.0)
           (-30.0 30.0)
           (-30.0 30.0)
  end
  begin
     id 13 
     name thorax
     direction 0.010104 0.999947 0.00178881   
     length 1.87779   
     axis 0 0 0   XYZ
    dof rx ry rz
    limits (-20.0 45.0)
           (-30.0 30.0)
           (-30.0 30.0)
  end
  begin
     id 14 
     name lowerneck
     direction 0.0120771 0.995934 -0.0892773   
     length 1.40897   
     axis 0 0 0   XYZ
    dof rx ry rz
    limits (-20.0 45.0)
           (-30.0 30.0)
           (-30.0 30.0)
  end
  begin
     id 15 
     name upperneck
     direction -0.030568 0.999465 -0.0116366   
     length 1.38661   
     axis 0 0 0   XYZ
    dof rx ry rz
    limits (-20.0 45.0)
           (-30.0 30.0)
           (-30.0 30.0)
  end
  begin
     id 16
     name head
     direction -0.0170715 0.999854 -0.00104426  
     length 1.47052  
     axis 0 0 0   XYZ
    dof rx ry rz
    limits (-20.0 45.0)
           (-30.0 30.0)
           (-30.0 30.0)
  end
  begin
     id 17 
     name lclavicle
     direction 0.977763 0.206143 0.038532  
     length 3.02424  
     axis 0 0 0   XYZ
    dof ry rz
    limits (-20.0 10.0)
           (0.0 20.0)
  end
  begin
     id 18 
     name lhumerus
     direction 1 -4.48965e-011 -2.62654e-027   
     length 4.68382   
     axis 180 -30 -90   XYZ
    dof rx ry rz
    limits (-60.0 90.0)
           (-90.0 90.0)
           (-90.0 90.0)
  end
  begin
     id 19
     name lradius
     direction 1 -4.48973e-011 -1.54954e-027   
     length 2.98124   
     axis 180 -30 -90   XYZ
    dof rx
    limits (-10.0 170.0)
  end
  begin
     id 20
     name lwrist
     direction 1 -4.48959e-011 7.20928e-028   
     length 1.49062   
     axis -5.52449e-016 90 90   XYZ
    dof ry
    limits (-180.0 0.0)
 end
  begin
     id 21 
     name lhand
     direction 1 -4.48971e-011 1.44186e-027   
     length 0.707595   
     axis -9.20027e-016 90 90   XYZ
    dof rx rz
    limits (-90.0 90.0)
           (-45.0 45.0)
  end
  begin
     id 22 
     name lfingers
     direction 1 -4.48985e-011 2.88371e-027   
     length 0.570481   
     axis -1.84005e-015 90 90   XYZ
    dof rx
    limits (0.0 90.0)
  end
  begin
     id 23
     name lthumb
     direction 0.707107 -6.34929e-011 0.707107   
     length 0.819101   
     axis -90 45 2.85299e-015   XYZ
    dof rx rz
    limits (-45.0 45.0)
           (-45.0 45.0)
  end
  begin
     id 24 
     name rclavicle
     direction -0.958661 0.284411 -0.00895327   
     length 3.11921  
     axis 0 0 0   XYZ 
    dof ry rz
    limits (-10.0 20.0)
           (-20.0 0.0)
  end
  begin
     id 25 
     name rhumerus
     direction -1 -4.48963e-011 -4.22193e-027  
     length 4.75876   
     axis 180 30 90   XYZ
    dof rx ry rz
    limits (-90.0 60.0)
           (-90.0 90.0)
           (-90.0 90.0)
  end
  begin
     id 26 
     name rradius
     direction -1 -4.48968e-011 -1.07616e-027   
     length 2.93293   
     axis 180 30 90   XYZ
    dof rx
    limits (-10.0 170.0)
  end
  begin
     id 27 
     name rwrist
     direction -1 -4.48965e-011 7.20928e-028   
     length 1.46647   
     axis -5.52449e-016 -90 -90   XYZ
    dof ry
    limits (-180.0 0.0)
  end
  begin
     id 28
     name rhand
     direction -1 -4.48971e-011 1.44186e-027   
     length 0.831748   
     axis -9.20027e-016 -90 -90   XYZ
    dof rx rz
    limits (-90.0 90.0)
           (-45.0 45.0)
  end
  begin
     id 29
     name rfingers
     direction -1 -4.48961e-011 2.88371e-027   
     length 0.670577   
     axis -1.84005e-015 -90 -90   XYZ
    dof rx
    limits (0.0 90.0)
  end
  begin
     id 30
     name rthumb
     direction -0.707107 -6.34929e-011 0.707107   
     length 0.962818   
     axis -90 -45 -2.85299e-015   XYZ
    dof rx rz
    limits (-45.0 45.0)
           (-45.0 45.0)
  end
:hierarchy
  begin
    root lhipjoint rhipjoint lowerback
    lhipjoint lfemur
    lfemur ltibia
    ltibia lfoot
    lfoot ltoes
    rhipjoint rfemur
    rfemur rtibia
    rtibia rfoot
    rfoot rtoes
    lowerback upperback
    upperback thorax
    thorax lowerneck lclavicle rclavicle
    lowerneck upperneck
    upperneck head
    lclavicle lhumerus
    lhumerus lradius
    lradius lwrist
    lwrist lhand lthumb
    lhand lfingers
    rclavicle rhumerus
    rhumerus rradius
    rradius rwrist
    rwrist rhand rthumb
    rhand rfingers
  end

#!OML:ASF E:\id_vita\Project 1\Capture day 1\Session 1\Female.ASF
:FULLY-SPECIFIED
:DEGREES
223
root 20.6167 16.3262 1.05831 -168.241 1.64218 -181.422
lowerback -13.7856 -1.48475 -4.5174
upperback -1.76511 -1.14078 1.03758
thorax 5.98199 -0.581143 3.45132
lowerneck 6.67863 0.756198 -3.6945
upperneck -14.9161 1.59883 3.7216
head -5.65015 0.913897 1.65068
rclavicle -8.49804e-015 2.98177e-015
rhumerus -25.6008 5.74369 -86.7573
rradius 67.9419
rwrist 1.62581
rhand -34.5465 19.9794
rfingers 7.12502
rthumb -7.70703 -9.86018
lclavicle -8.49804e-015 2.98177e-015
lhumerus -10.3646 -19.1719 85.1128
lradius 56.8213
lwrist -10.6559
lhand -16.3502 25.8973
lfingers 7.12502
lthumb 9.86229 55.6463
rfemur -35.4706 10.7893 12.7307
rtibia 6.09248
rfoot 2.0895 -8.21457
rtoes -6.86821
lfemur -2.05713 -10.4213 -26.0696
ltibia 18.0736
lfoot -23.0734 4.93785
ltoes 5.40879
224
root 20.6211 16.3192 0.951393 -168.143 0.777884 -181.36
lowerback -13.7214 -1.68023 -4.22733
upperback -1.86174 -1.43841 1.02997
thorax 5.86423 -0.711939 3.22323
lowerneck 6.65023 0.703043 -3.66016
upperneck -14.8357 1.51652 3.67335
head -5.61647 0.873416 1.63551
rclavicle -1.16662e-014 4.57205e-015
rhumerus -25.0884 6.72618 -86.3649
rradius 68.805
rwrist 1.74664
rhand -34.8057 20.3642
rfingers 7.12502
rthumb -7.9572 -9.46606
lclavicle -1.16662e-014 4.57205e-015
lhumerus -9.34129 -21.0634 84.0995
lradius 57.863
lwrist -10.0031
lhand -17.5812 26.3214
lfingers 7.12502
lthumb 8.67452 56.1231
rfemur -35.01 10.2509 12.8482
rtibia 5.64863
rfoot 2.07404 -7.88566
rtoes -2.19013
lfemur -1.95258 -10.9308 -25.8099
ltibia 18.507
lfoot -23.3593 4.75946
ltoes 4.19197
225
root 20.6172 16.2977 0.844432 -167.371 -0.0121375 -181.309
lowerback -14.3422 -1.5354 -3.88614
upperback -2.14554 -1.76854 0.978831
thorax 5.90811 -1.07398 2.88333
lowerneck 6.60342 0.688692 -3.63692
upperneck -14.7354 1.50757 3.7566
head -5.57706 0.861006 1.65843
rclavicle -6.42944e-015 -5.76476e-015
rhumerus -24.5666 7.77508 -85.8563
rradius 69.7977
rwrist 1.32225
rhand -34.7263 20.6998
rfingers 7.12502
rthumb -7.8806 -9.13336
lclavicle -6.42944e-015 -5.76476e-015
lhumerus -8.22697 -22.7664 83.0796
lradius 58.8384
lwrist -9.61529
lhand -17.9414 26.275
lfingers 7.12502
lthumb 8.32693 56.0909
rfemur -35.4125 9.73044 12.8648
rtibia 5.42142
rfoot 3.19717 -7.14526
rtoes -4.88855
lfemur -2.64294 -11.4163 -25.4446
ltibia 18.9707
lfoot -23.6192 4.40866
ltoes 3.46977
226
root 20.6285 16.2763 0.72751 -167.12 -0.30115 -181.168
lowerback -14.5253 -1.58721 -3.64077
upperback -2.30358 -1.88918 0.963133
thorax 5.84213 -1.13265 2.70131
lowerneck 6.40529 0.755724 -3.29621
upperneck -14.4108 1.58244 3.49141
head -5.4412 0.892668 1.51409
rclavicle -6.70277e-015 4.57205e-015
rhumerus -24.0151 9.07106 -85.2704
rradius 70.8356
rwrist 0.684522
rhand -34.5558 20.9565
rfingers 7.12502
rthumb -7.71607 -8.88272
lclavicle -6.70277e-015 4.57205e-015
lhumerus -7.29872 -23.7364 82.1081
lradius 59.7464
lwrist -9.67643
lhand -18.1394 25.845
lfingers 7.12502
lthumb 8.13583 55.6684
rfemur -35.5601 9.8066 12.9756
rtibia 5.93669
rfoot 3.3588 -6.91423
rtoes -3.43567
lfemur -2.72225 -11.1411 -25.15
ltibia 19.4356
lfoot -24.0245 4.19721
ltoes 2.2331
227
root 20.6529 16.2454 0.609201 -167.187 0.575254 -180.959
lowerback -14.45 -1.59127 -3.52498
upperback -2.35657 -1.33523 1.01443
thorax 5.71525 -0.606172 2.82495
lowerneck 6.05949 0.672175 -3.81795
upperneck -14.002 1.44539 3.86077
head -5.25545 0.8261 1.72558
rclavicle -6.17475e-015 -3.18055e-015
rhumerus -23.3967 10.0233 -84.526
rradius 71.7442
rwrist 0.690956
rhand -34.4834 21.311
rfingers 7.12502
rthumb -7.64615 -8.5308
lclavicle -6.17475e-015 -3.18055e-015
lhumerus -6.33248 -24.6842 81.3169
lradius 60.6674
lwrist -9.78605
lhand -18.563 25.726
lfingers 7.12502
lthumb 7.72697 55.5649
rfemur -35.7056 11.0681 12.9235
rtibia 6.74644
rfoot 3.34694 -6.91289
rtoes -2.22431
lfemur -2.25644 -10.2591 -25.1488
ltibia 19.6771
lfoot -24.2056 4.57842
ltoes 1.2808
228
root 20.658 16.2271 0.48595 -166.581 -0.482753 -181.229
lowerback -15.0532 -1.46738 -3.72463
upperback -2.57856 -1.74701 1.02965
thorax 5.83142 -1.07858 2.83946
lowerneck 6.13462 0.561934 -3.62495
upperneck -13.9935 1.2358 3.36564
head -5.25438 0.741977 1.55229
rclavicle 9.72181e-015 -2.18663e-015
rhumerus -22.7915 10.6592 -83.6363
rradius 72.6161
rwrist 1.10158
rhand -34.589 21.7844
rfingers 7.12502
rthumb -7.74811 -8.05361
lclavicle 9.72181e-015 -2.18663e-015
lhumerus -5.12409 -26.6147 80.1961
lradius 61.7012
lwrist -9.06658
lhand -19.2624 26.3015
lfingers 7.12502
lthumb 7.05185 56.164
rfemur -36.2914 10.2966 12.7955
rtibia 8.02088
rfoot 3.13304 -6.88064
rtoes -2.56365
lfemur -2.4608 -10.7138 -24.9995
ltibia 19.5757
lfoot -24.2472 3.84696
ltoes 1.13382
229
root 20.7518 16.1945 0.340717 -167.526 2.47931 -180.712
lowerback -14.6481 -0.931134 -4.60513
upperback -2.28653 -0.310427 1.37139
thorax 5.8278 -0.135124 4.0192
lowerneck 6.34043 0.587522 -3.58816
upperneck -14.1316 1.22659 3.06202
head -5.33079 0.753521 1.45173
rclavicle 3.62161e-015 4.17448e-015
rhumerus -22.1212 11.6199 -82.7458
rradius 73.5004
rwrist 1.15475
rhand -34.7011 22.1296
rfingers 7.12502
rthumb -7.85633 -7.70438
lclavicle 3.62161e-015 4.17448e-015
lhumerus -3.95227 -28.5175 78.7088
lradius 62.8016
lwrist -8.18139
lhand -20.2366 26.9644
lfingers 7.12502
lthumb 6.11137 56.8563
rfemur -36.0142 13.8849 12.873
rtibia 9.40292
rfoot 3.43243 -6.38191
rtoes -3.14921
lfemur -0.433664 -8.60813 -25.2234
ltibia 19.2622
lfoot -24.4797 4.8211
ltoes 0.285083
230
root 20.7375 16.203 0.217714 -167.193 0.986354 -180.887
lowerback -14.7878 -1.3592 -4.20177
upperback -2.52099 -0.900402 1.27611
thorax 5.70833 -0.394025 3.57246
lowerneck 6.38866 0.614466 -3.53329
upperneck -14.1055 1.25956 3.03094
head -5.33168 0.76677 1.43072
rclavicle 2.35125e-015 -1.5704e-014
rhumerus -21.4337 12.7398 -81.9805
rradius 74.4281
rwrist 0.787113
rhand -34.9254 22.2552
rfingers 7.12502
rthumb -8.07275 -7.57058
lclavicle 2.35125e-015 -1.5704e-014
lhumerus -2.79482 -29.5887 77.3383
lradius 63.5705
lwrist -8.20319
lhand -21.2711 27.1481
lfingers 7.12502
lthumb 5.11255 57.0665
rfemur -36.4716 12.7285 12.9438
rtibia 10.7803
rfoot 3.95234 -5.83188
rtoes -2.53203
lfemur -0.265339 -9.58541 -25.0419
ltibia 18.8545
lfoot -24.1062 4.32918
ltoes -1.56868
231
root 20.7275 16.2122 0.0893516 -166.807 -0.417753 -181.07
lowerback -15.0723 -1.26618 -3.88402
upperback -2.74831 -1.47971 1.07137
thorax 5.64372 -0.953505 3.02909
lowerneck 6.3134 0.578446 -3.28807
upperneck -13.9524 1.22136 2.95557
head -5.26837 0.737998 1.36927
rclavicle -9.20932e-015 -3.97569e-016
rhumerus -20.7915 13.5548 -81.2924
rradius 75.3489
rwrist 0.624483
rhand -35.1936 22.4123
rfingers 7.12502
rthumb -8.33159 -7.40341
lclavicle -9.20932e-015 -3.97569e-016
lhumerus -1.54421 -30.2866 76.1008
lradius 64.0304
lwrist -8.76653
lhand -22.1394 27.0046
lfingers 7.12502
lthumb 4.27419 56.9415
rfemur -37.1016 12.5944 12.2934
rtibia 11.9046
rfoot 5.30377 -6.47162
rtoes -3.74458
lfemur -0.0973812 -10.1976 -24.7896
ltibia 18.3472
lfoot -23.69 3.51019
ltoes -3.01424
232
root 20.7357 16.2204 -0.0431379 -166.467 -1.29603 -181.188
lowerback -15.4137 -1.54072 -3.74523
upperback -2.91863 -1.87608 1.00675
thorax 5.67484 -1.15358 2.79613
lowerneck 6.30695 0.632946 -3.32269
upperneck -13.8731 1.28693 2.97256
head -5.24517 0.768244 1.37612
rclavicle -1.20606e-014 -8.54774e-015
rhumerus -20.0208 14.5468 -80.6277
rradius 76.1267
rwrist 0.831178
rhand -35.5112 22.6776
rfingers 7.12502
rthumb -8.63808 -7.12565
lclavicle -1.20606e-014 -8.54774e-015
lhumerus -0.427711 -30.9515 74.698
lradius 64.7436
lwrist -9.02845
lhand -22.8313 27.2348
lfingers 7.12502
lthumb 3.60604 57.1841
rfemur -37.7652 12.6859 11.85
rtibia 13.0134
rfoot 6.55681 -6.7171
rtoes -5.41494
lfemur 0.0539717 -10.2627 -24.4887
ltibia 18.0192
lfoot -23.451 2.45965
ltoes -4.09448
233
root 20.7554 16.2221 -0.178418 -166.186 -1.67138 -181.241
lowerback -15.7141 -1.71591 -3.85143
upperback -3.07564 -2.11029 1.0655
thorax 5.69435 -1.27931 2.86509
lowerneck 6.20037 0.654671 -3.63712
upperneck -13.718 1.29185 3.11072
head -5.18172 0.775039 1.47107
rclavicle 3.78592e-014 -3.97569e-016
rhumerus -19.1315 15.6929 -79.8246
rradius 76.768
rwrist 0.984617
rhand -35.8862 23.0645
rfingers 7.12502
rthumb -8.99998 -6.72352
lclavicle 3.78592e-014 -3.97569e-016
lhumerus 0.607216 -31.6314 73.3399
lradius 65.5946
lwrist -9.02492
lhand -23.5077 27.8863
lfingers 7.12502
lthumb 2.95277 57.8457
rfemur -38.3686 12.4195 12.0099
rtibia 14.1888
rfoot 7.54766 -5.61153
rtoes -7.71492
lfemur 0.286879 -10.2203 -24.2773
ltibia 17.7792
lfoot -23.1758 1.67029
ltoes -4.96806
234
root 20.7803 16.2223 -0.317063 -165.933 -1.81626 -181.127
lowerback -16.0297 -1.7232 -3.84246
upperback -3.21045 -2.14104 1.14492
thorax 5.72659 -1.30379 2.93179
lowerneck 5.96255 0.584575 -3.81998
upperneck -13.5396 1.18743 3.18022
head -5.08365 0.729298 1.52979
rclavicle 1.48126e-014 -1.19271e-015
rhumerus -18.2509 16.5638 -78.9529
rradius 77.3728
rwrist 1.14262
rhand -36.2484 23.3833
rfingers 7.12502
rthumb -9.34945 -6.38938
lclavicle 1.48126e-014 -1.19271e-015
lhumerus 1.69747 -32.1433 72.2034
lradius 66.2717
lwrist -9.11977
lhand -23.8574 27.8753
lfingers 7.12502
lthumb 2.61512 57.839
rfemur -38.8091 11.9647 12.6283
rtibia 15.3207
rfoot 8.35751 -4.26644
rtoes -8.36692
lfemur 0.534502 -10.3956 -24.0121
ltibia 17.7493
lfoot -22.8052 1.24562
ltoes -4.67384
235
root 20.8066 16.2293 -0.454918 -165.737 -1.85951 -180.834
lowerback -16.2793 -1.63175 -3.60761
upperback -3.32585 -2.07829 1.20798
thorax 5.72838 -1.27736 2.87413
lowerneck 5.71436 0.553589 -3.76571
upperneck -13.3775 1.14911 3.12166
head -4.98952 0.71326 1.50519
rclavicle 8.75196e-015 3.77691e-015
rhumerus -17.3853 17.3294 -78.0406
rradius 78.0619
rwrist 1.14217
rhand -36.6122 23.5714
rfingers 7.12502
rthumb -9.70055 -6.1852
lclavicle 8.75196e-015 3.77691e-015
lhumerus 2.77698 -32.5582 70.9314
lradius 66.9177
lwrist -9.24742
lhand -23.6589 26.6723
lfingers 7.12502
lthumb 2.80677 56.6336
rfemur -39.089 11.7859 13.2641
rtibia 16.4622
rfoot 8.68869 -3.90458
rtoes -5.31628
lfemur 0.707933 -10.2436 -23.5475
ltibia 17.9632
lfoot -22.5201 0.652781
ltoes -4.00851
236
root 20.8279 16.2365 -0.589875 -165.598 -1.91257 -180.513
lowerback -16.4199 -1.54782 -3.32547
upperback -3.44444 -2.03617 1.26722
thorax 5.66806 -1.2587 2.78382
lowerneck 5.49799 0.570525 -3.62604
upperneck -13.2082 1.1609 2.91261
head -4.89961 0.725305 1.41682
rclavicle 9.93535e-016 8.94531e-015
rhumerus -16.4237 18.0545 -77.0598
rradius 78.7189
rwrist 0.898773
rhand -36.784 23.8803
rfingers 7.12502
rthumb -9.86626 -5.86849
lclavicle 9.93535e-016 8.94531e-015
lhumerus 3.82016 -32.8378 69.6397
lradius 67.5433
lwrist -9.359
lhand -23.5396 26.1114
lfingers 7.12502
lthumb 2.92202 56.0712
rfemur -39.3657 12.3874 13.4648
rtibia 17.6953
rfoot 8.78414 -4.37573
rtoes -4.42516
lfemur 0.833776 -10.151 -23.0879
ltibia 18.3068
lfoot -22.0954 0.103296
ltoes -3.32616
237
root 20.8499 16.2413 -0.722603 -165.413 -1.9925 -180.247
lowerback -16.611 -1.53061 -3.17437
upperback -3.55377 -2.0634 1.38637
thorax 5.6562 -1.27785 2.81564
lowerneck 5.4394 0.570204 -3.94794
upperneck -13.1878 1.1798 3.27964
head -4.88706 0.729273 1.58275
rclavicle -1.13862e-014 -3.57812e-015
rhumerus -15.3253 18.7801 -76.1708
rradius 79.2023
rwrist 0.996816
rhand -36.8663 24.256
rfingers 7.12502
rthumb -9.94565 -5.48901
lclavicle -1.13862e-014 -3.57812e-015
lhumerus 4.85751 -33.0254 68.4992
lradius 68.2057
lwrist -9.2381
lhand -23.9544 26.9567
lfingers 7.12502
lthumb 2.52137 56.9216
rfemur -39.6647 12.1492 14.1854
rtibia 18.9005
rfoot 8.20307 -4.10676
rtoes -6.76546
lfemur 0.813877 -10.0424 -22.6741
ltibia 18.7807
lfoot -21.5944 -0.424753
ltoes -2.9007
